<mxfile host="app.diagrams.net" modified="2021-10-28T00:53:50.959Z" agent="5.0 (Windows NT 10.0; Win64; x64) AppleWebKit/537.36 (KHTML, like Gecko) Chrome/95.0.4638.54 Safari/537.36" etag="6gTETYhHqvyOwCpdkISl" version="15.6.2" type="github">
  <diagram id="C5RBs43oDa-KdzZeNtuy" name="Page-1">
    <mxGraphModel dx="868" dy="425" grid="1" gridSize="10" guides="1" tooltips="1" connect="1" arrows="1" fold="1" page="1" pageScale="1" pageWidth="827" pageHeight="1169" math="0" shadow="0">
      <root>
        <mxCell id="WIyWlLk6GJQsqaUBKTNV-0" />
        <mxCell id="WIyWlLk6GJQsqaUBKTNV-1" parent="WIyWlLk6GJQsqaUBKTNV-0" />
        <mxCell id="dcxNYcH0LIRxQ4roH9bU-2" value="" style="edgeStyle=orthogonalEdgeStyle;rounded=0;orthogonalLoop=1;jettySize=auto;html=1;" edge="1" parent="WIyWlLk6GJQsqaUBKTNV-1" source="dcxNYcH0LIRxQ4roH9bU-0">
          <mxGeometry relative="1" as="geometry">
            <mxPoint x="354" y="180" as="targetPoint" />
          </mxGeometry>
        </mxCell>
        <mxCell id="dcxNYcH0LIRxQ4roH9bU-0" value="START" style="ellipse;whiteSpace=wrap;html=1;" vertex="1" parent="WIyWlLk6GJQsqaUBKTNV-1">
          <mxGeometry x="294" y="40" width="120" height="80" as="geometry" />
        </mxCell>
        <mxCell id="dcxNYcH0LIRxQ4roH9bU-7" value="" style="edgeStyle=orthogonalEdgeStyle;rounded=0;orthogonalLoop=1;jettySize=auto;html=1;" edge="1" parent="WIyWlLk6GJQsqaUBKTNV-1" source="dcxNYcH0LIRxQ4roH9bU-1" target="dcxNYcH0LIRxQ4roH9bU-6">
          <mxGeometry relative="1" as="geometry" />
        </mxCell>
        <mxCell id="dcxNYcH0LIRxQ4roH9bU-1" value="a1= max, i= 2" style="whiteSpace=wrap;html=1;" vertex="1" parent="WIyWlLk6GJQsqaUBKTNV-1">
          <mxGeometry x="285" y="280" width="120" height="60" as="geometry" />
        </mxCell>
        <mxCell id="dcxNYcH0LIRxQ4roH9bU-5" value="" style="edgeStyle=orthogonalEdgeStyle;rounded=0;orthogonalLoop=1;jettySize=auto;html=1;" edge="1" parent="WIyWlLk6GJQsqaUBKTNV-1" source="dcxNYcH0LIRxQ4roH9bU-4" target="dcxNYcH0LIRxQ4roH9bU-1">
          <mxGeometry relative="1" as="geometry" />
        </mxCell>
        <mxCell id="dcxNYcH0LIRxQ4roH9bU-4" value="input N là dãy số từ a1, a2, ...an" style="shape=parallelogram;perimeter=parallelogramPerimeter;whiteSpace=wrap;html=1;fixedSize=1;" vertex="1" parent="WIyWlLk6GJQsqaUBKTNV-1">
          <mxGeometry x="230" y="180" width="230" height="60" as="geometry" />
        </mxCell>
        <mxCell id="dcxNYcH0LIRxQ4roH9bU-8" style="edgeStyle=orthogonalEdgeStyle;rounded=0;orthogonalLoop=1;jettySize=auto;html=1;" edge="1" parent="WIyWlLk6GJQsqaUBKTNV-1" source="dcxNYcH0LIRxQ4roH9bU-6">
          <mxGeometry relative="1" as="geometry">
            <mxPoint x="240" y="600" as="targetPoint" />
          </mxGeometry>
        </mxCell>
        <mxCell id="dcxNYcH0LIRxQ4roH9bU-14" style="edgeStyle=orthogonalEdgeStyle;rounded=0;orthogonalLoop=1;jettySize=auto;html=1;exitX=1;exitY=0.5;exitDx=0;exitDy=0;" edge="1" parent="WIyWlLk6GJQsqaUBKTNV-1" source="dcxNYcH0LIRxQ4roH9bU-6">
          <mxGeometry relative="1" as="geometry">
            <mxPoint x="510" y="540" as="targetPoint" />
          </mxGeometry>
        </mxCell>
        <mxCell id="dcxNYcH0LIRxQ4roH9bU-6" value="i&amp;gt;n" style="rhombus;whiteSpace=wrap;html=1;" vertex="1" parent="WIyWlLk6GJQsqaUBKTNV-1">
          <mxGeometry x="280" y="400" width="130" height="90" as="geometry" />
        </mxCell>
        <mxCell id="dcxNYcH0LIRxQ4roH9bU-10" value="yes" style="text;html=1;align=center;verticalAlign=middle;resizable=0;points=[];autosize=1;strokeColor=none;fillColor=none;" vertex="1" parent="WIyWlLk6GJQsqaUBKTNV-1">
          <mxGeometry x="235" y="500" width="30" height="20" as="geometry" />
        </mxCell>
        <mxCell id="dcxNYcH0LIRxQ4roH9bU-13" style="edgeStyle=orthogonalEdgeStyle;rounded=0;orthogonalLoop=1;jettySize=auto;html=1;" edge="1" parent="WIyWlLk6GJQsqaUBKTNV-1" source="dcxNYcH0LIRxQ4roH9bU-11">
          <mxGeometry relative="1" as="geometry">
            <mxPoint x="400" y="960" as="targetPoint" />
            <Array as="points">
              <mxPoint x="220" y="960" />
            </Array>
          </mxGeometry>
        </mxCell>
        <mxCell id="dcxNYcH0LIRxQ4roH9bU-11" value="display a1= max" style="shape=parallelogram;perimeter=parallelogramPerimeter;whiteSpace=wrap;html=1;fixedSize=1;" vertex="1" parent="WIyWlLk6GJQsqaUBKTNV-1">
          <mxGeometry x="180" y="610" width="120" height="60" as="geometry" />
        </mxCell>
        <mxCell id="dcxNYcH0LIRxQ4roH9bU-12" value="stopp" style="ellipse;whiteSpace=wrap;html=1;" vertex="1" parent="WIyWlLk6GJQsqaUBKTNV-1">
          <mxGeometry x="405" y="900" width="120" height="80" as="geometry" />
        </mxCell>
        <mxCell id="dcxNYcH0LIRxQ4roH9bU-15" value="no" style="text;html=1;align=center;verticalAlign=middle;resizable=0;points=[];autosize=1;strokeColor=none;fillColor=none;" vertex="1" parent="WIyWlLk6GJQsqaUBKTNV-1">
          <mxGeometry x="505" y="460" width="30" height="20" as="geometry" />
        </mxCell>
      </root>
    </mxGraphModel>
  </diagram>
</mxfile>
